<?xml version="1.0" encoding="utf-8"?>
<!-- Generator: Adobe Illustrator 22.0.0, SVG Export Plug-In . SVG Version: 6.00 Build 0)  -->
<!DOCTYPE svg PUBLIC "-//W3C//DTD SVG 1.1//EN" "http://www.w3.org/Graphics/SVG/1.1/DTD/svg11.dtd" [
	<!ENTITY st0 "display:none;">
	<!ENTITY st1 "display:inline;">
	<!ENTITY st2 "fill:#FFFFFF;">
	<!ENTITY st3 "fill:url(#SVGID_1_);">
]>
<svg version="1.1" xmlns="http://www.w3.org/2000/svg" xmlns:xlink="http://www.w3.org/1999/xlink" x="0px" y="0px"
	 viewBox="0 0 300 300" style="enable-background:new 0 0 300 300;" xml:space="preserve">
<g id="Layer_1" style="&st0;">
	<g style="&st1;">
		<rect x="203.3" y="23.8" style="&st2;" width="270.9" height="270.9"/>
		<path d="M473.9,24.1v270.4H203.6V24.1H473.9 M474.5,23.5H203V295h271.5V23.5L474.5,23.5z"/>
	</g>
	<g style="&st1;">
		<polygon style="&st2;" points="203,64.5 203,23.5 244,23.5 244,64.5 		"/>
		<path d="M243.9,23.6v40.8h-40.8V23.6H243.9 M244,23.5h-41v41h41V23.5L244,23.5z"/>
	</g>
</g>
<g id="Layer_2">
	<linearGradient id="SVGID_1_" gradientUnits="userSpaceOnUse" x1="16.3013" y1="195.9632" x2="299.0588" y2="98.7563">
		<stop  offset="0" style="stop-color:#00D449"/>
		<stop  offset="1" style="stop-color:#15FF4B"/>
	</linearGradient>
	<path style="&st3;" d="M289.3,0.5H10.7C5.1,0.5,0.5,5.1,0.5,10.7v278.7c0,5.6,4.6,10.2,10.2,10.2h278.7c5.6,0,10.2-4.6,10.2-10.2
		V10.7C299.5,5.1,294.9,0.5,289.3,0.5z M250,50.5v30v32h-30v-32H80v139h140v-33h30v33v30v4h-30v-4H80H50v-30v-139v-29v-1h170v-5h30
		V50.5z M194,135v30h-93v-30H194z"/>
</g>
</svg>
