<?xml version="1.0" standalone="no"?>
<!DOCTYPE svg PUBLIC "-//W3C//DTD SVG 20010904//EN"
 "http://www.w3.org/TR/2001/REC-SVG-20010904/DTD/svg10.dtd">
<svg version="1.0" xmlns="http://www.w3.org/2000/svg"
 width="700.000000pt" height="700.000000pt" viewBox="0 0 700.000000 700.000000"
 preserveAspectRatio="xMidYMid meet">
<metadata>
Created by potrace 1.11, written by Peter Selinger 2001-2013
</metadata>
<g transform="translate(0.000000,700.000000) scale(0.100000,-0.100000)"
fill="#000000" stroke="none">
<path d="M170 6970 c-71 -24 -123 -79 -144 -152 -15 -48 -16 -385 -14 -3343
l3 -3290 22 -41 c29 -55 93 -109 146 -123 31 -9 877 -11 3337 -9 l3295 3 40
22 c47 25 85 64 111 113 18 34 19 134 19 3340 0 2696 -2 3312 -13 3342 -16 46
-75 107 -127 133 -39 20 -84 20 -3330 22 -3208 2 -3291 2 -3345 -17z m5668
-1812 l-3 -783 -352 -3 -353 -2 0 375 0 375 -1630 0 -1630 0 0 -1620 0 -1620
1630 0 1630 0 0 385 0 385 353 -2 352 -3 0 -780 0 -780 -350 0 -350 0 -3 48
-3 47 -1980 0 -1979 0 0 2320 0 2320 1980 0 1980 0 0 60 0 60 355 0 355 0 -2
-782z m-1308 -1658 l0 -350 -1085 0 -1085 0 0 350 0 350 1085 0 1085 0 0 -350z"/>
</g>
</svg>
